# MagicaVoxel @ Ephtracy

# group
o CocoNut-1

# material
mtllib Voxel Virgin Island - Free Sample-1-CocoNut-1.mtl
usemtl palette

# normals
vn -1 0 0
vn 1 0 0
vn 0 0 1
vn 0 0 -1
vn 0 -1 0
vn 0 1 0

# texcoords
vt 0.302734 0.5
vt 0.306641 0.5

# verts
v -0.76 0.42 10.26
v -0.76 0.42 10.2
v -0.76 0.44 10.26
v -0.76 0.44 10.2
v -0.76 0.48 10.26
v -0.76 0.48 10.2
v -0.74 0.4 10.26
v -0.74 0.4 10.2
v -0.74 0.42 10.28
v -0.74 0.42 10.26
v -0.74 0.42 10.2
v -0.74 0.42 10.18
v -0.74 0.44 10.28
v -0.74 0.44 10.26
v -0.74 0.44 10.2
v -0.74 0.46 10.2
v -0.74 0.46 10.18
v -0.74 0.48 10.28
v -0.74 0.48 10.26
v -0.74 0.48 10.2
v -0.74 0.48 10.18
v -0.74 0.5 10.26
v -0.74 0.5 10.2
v -0.68 0.4 10.26
v -0.68 0.4 10.2
v -0.68 0.42 10.28
v -0.68 0.42 10.26
v -0.68 0.42 10.2
v -0.68 0.42 10.18
v -0.68 0.44 10.28
v -0.68 0.44 10.26
v -0.68 0.44 10.2
v -0.68 0.44 10.18
v -0.68 0.46 10.2
v -0.68 0.48 10.28
v -0.68 0.48 10.26
v -0.68 0.48 10.2
v -0.68 0.48 10.18
v -0.68 0.5 10.26
v -0.68 0.5 10.2
v -0.66 0.42 10.26
v -0.66 0.42 10.2
v -0.66 0.44 10.26
v -0.66 0.44 10.24
v -0.66 0.46 10.24
v -0.66 0.46 10.2
v -0.66 0.48 10.26
v -0.66 0.48 10.2
v -0.74 0.42 10.28
v -0.74 0.44 10.28
v -0.74 0.48 10.28
v -0.72 0.42 10.28
v -0.72 0.44 10.28
v -0.7 0.42 10.28
v -0.7 0.44 10.28
v -0.68 0.42 10.28
v -0.68 0.44 10.28
v -0.68 0.48 10.28
v -0.76 0.42 10.26
v -0.76 0.44 10.26
v -0.76 0.48 10.26
v -0.74 0.4 10.26
v -0.74 0.42 10.26
v -0.74 0.44 10.26
v -0.74 0.48 10.26
v -0.74 0.5 10.26
v -0.72 0.42 10.26
v -0.7 0.42 10.26
v -0.68 0.4 10.26
v -0.68 0.42 10.26
v -0.68 0.44 10.26
v -0.68 0.48 10.26
v -0.68 0.5 10.26
v -0.66 0.42 10.26
v -0.66 0.44 10.26
v -0.66 0.48 10.26
v -0.76 0.42 10.2
v -0.76 0.44 10.2
v -0.76 0.48 10.2
v -0.74 0.4 10.2
v -0.74 0.42 10.2
v -0.74 0.44 10.2
v -0.74 0.46 10.2
v -0.74 0.48 10.2
v -0.74 0.5 10.2
v -0.68 0.4 10.2
v -0.68 0.42 10.2
v -0.68 0.44 10.2
v -0.68 0.46 10.2
v -0.68 0.48 10.2
v -0.68 0.5 10.2
v -0.66 0.42 10.2
v -0.66 0.46 10.2
v -0.66 0.48 10.2
v -0.74 0.42 10.18
v -0.74 0.46 10.18
v -0.74 0.48 10.18
v -0.72 0.44 10.18
v -0.72 0.46 10.18
v -0.68 0.42 10.18
v -0.68 0.44 10.18
v -0.68 0.48 10.18
v -0.74 0.4 10.26
v -0.68 0.4 10.26
v -0.72 0.4 10.24
v -0.7 0.4 10.24
v -0.72 0.4 10.22
v -0.7 0.4 10.22
v -0.74 0.4 10.2
v -0.68 0.4 10.2
v -0.74 0.42 10.28
v -0.72 0.42 10.28
v -0.7 0.42 10.28
v -0.68 0.42 10.28
v -0.76 0.42 10.26
v -0.74 0.42 10.26
v -0.72 0.42 10.26
v -0.7 0.42 10.26
v -0.68 0.42 10.26
v -0.66 0.42 10.26
v -0.76 0.42 10.2
v -0.74 0.42 10.2
v -0.68 0.42 10.2
v -0.66 0.42 10.2
v -0.74 0.42 10.18
v -0.68 0.42 10.18
v -0.74 0.48 10.28
v -0.68 0.48 10.28
v -0.76 0.48 10.26
v -0.74 0.48 10.26
v -0.68 0.48 10.26
v -0.66 0.48 10.26
v -0.76 0.48 10.2
v -0.74 0.48 10.2
v -0.68 0.48 10.2
v -0.66 0.48 10.2
v -0.74 0.48 10.18
v -0.68 0.48 10.18
v -0.74 0.5 10.26
v -0.68 0.5 10.26
v -0.72 0.5 10.24
v -0.7 0.5 10.24
v -0.72 0.5 10.22
v -0.7 0.5 10.22
v -0.74 0.5 10.2
v -0.68 0.5 10.2

# faces
f 3/2/1 2/2/1 1/2/1
f 4/2/1 2/2/1 3/2/1
f 5/1/1 4/1/1 3/1/1
f 6/1/1 4/1/1 5/1/1
f 10/2/1 8/2/1 7/2/1
f 11/2/1 8/2/1 10/2/1
f 13/2/1 10/2/1 9/2/1
f 14/2/1 10/2/1 13/2/1
f 15/2/1 12/2/1 11/2/1
f 16/2/1 12/2/1 15/2/1
f 17/2/1 12/2/1 16/2/1
f 18/1/1 14/1/1 13/1/1
f 19/1/1 14/1/1 18/1/1
f 20/1/1 17/1/1 16/1/1
f 21/1/1 17/1/1 20/1/1
f 22/1/1 20/1/1 19/1/1
f 23/1/1 20/1/1 22/1/1
f 24/2/2 25/2/2 27/2/2
f 27/2/2 25/2/2 28/2/2
f 26/2/2 27/2/2 30/2/2
f 30/2/2 27/2/2 31/2/2
f 28/2/2 29/2/2 32/2/2
f 32/2/2 29/2/2 33/2/2
f 32/1/2 33/1/2 34/1/2
f 30/1/2 31/1/2 35/1/2
f 35/1/2 31/1/2 36/1/2
f 34/1/2 33/1/2 37/1/2
f 37/1/2 33/1/2 38/1/2
f 36/1/2 37/1/2 39/1/2
f 39/1/2 37/1/2 40/1/2
f 41/2/2 42/2/2 43/2/2
f 43/2/2 42/2/2 44/2/2
f 43/1/2 44/1/2 45/1/2
f 44/2/2 42/2/2 45/2/2
f 45/2/2 42/2/2 46/2/2
f 43/1/2 45/1/2 47/1/2
f 45/1/2 46/1/2 47/1/2
f 47/1/2 46/1/2 48/1/2
f 52/2/3 50/2/3 49/2/3
f 53/1/3 51/1/3 50/1/3
f 53/2/3 50/2/3 52/2/3
f 54/1/3 53/1/3 52/1/3
f 55/1/3 51/1/3 53/1/3
f 55/1/3 53/1/3 54/1/3
f 56/2/3 55/2/3 54/2/3
f 57/1/3 51/1/3 55/1/3
f 57/2/3 55/2/3 56/2/3
f 58/1/3 51/1/3 57/1/3
f 63/2/3 60/2/3 59/2/3
f 64/1/3 61/1/3 60/1/3
f 64/2/3 60/2/3 63/2/3
f 65/1/3 61/1/3 64/1/3
f 67/2/3 63/2/3 62/2/3
f 68/2/3 67/2/3 62/2/3
f 69/2/3 68/2/3 62/2/3
f 70/2/3 68/2/3 69/2/3
f 72/1/3 66/1/3 65/1/3
f 73/1/3 66/1/3 72/1/3
f 74/2/3 71/2/3 70/2/3
f 75/1/3 72/1/3 71/1/3
f 75/2/3 71/2/3 74/2/3
f 76/1/3 72/1/3 75/1/3
f 77/2/4 78/2/4 81/2/4
f 78/1/4 79/1/4 82/1/4
f 81/2/4 78/2/4 82/2/4
f 82/1/4 79/1/4 83/1/4
f 83/1/4 79/1/4 84/1/4
f 80/2/4 81/2/4 86/2/4
f 86/2/4 81/2/4 87/2/4
f 84/1/4 85/1/4 90/1/4
f 90/1/4 85/1/4 91/1/4
f 88/2/4 89/2/4 92/2/4
f 87/2/4 88/2/4 92/2/4
f 89/1/4 90/1/4 93/1/4
f 92/2/4 89/2/4 93/2/4
f 93/1/4 90/1/4 94/1/4
f 95/2/4 96/2/4 98/2/4
f 96/1/4 97/1/4 99/1/4
f 98/2/4 96/2/4 99/2/4
f 95/2/4 98/2/4 100/2/4
f 98/1/4 99/1/4 101/1/4
f 100/2/4 98/2/4 101/2/4
f 99/1/4 97/1/4 102/1/4
f 101/1/4 99/1/4 102/1/4
f 105/2/5 104/2/5 103/2/5
f 106/2/5 104/2/5 105/2/5
f 107/2/5 105/2/5 103/2/5
f 107/1/5 106/1/5 105/1/5
f 108/2/5 104/2/5 106/2/5
f 108/1/5 106/1/5 107/1/5
f 109/2/5 107/2/5 103/2/5
f 109/2/5 108/2/5 107/2/5
f 110/2/5 104/2/5 108/2/5
f 110/2/5 108/2/5 109/2/5
f 116/2/5 112/2/5 111/2/5
f 117/1/5 113/1/5 112/1/5
f 117/2/5 112/2/5 116/2/5
f 118/2/5 114/2/5 113/2/5
f 118/1/5 113/1/5 117/1/5
f 119/2/5 114/2/5 118/2/5
f 121/2/5 116/2/5 115/2/5
f 122/2/5 116/2/5 121/2/5
f 123/2/5 120/2/5 119/2/5
f 124/2/5 120/2/5 123/2/5
f 125/2/5 123/2/5 122/2/5
f 126/2/5 123/2/5 125/2/5
f 127/1/6 128/1/6 130/1/6
f 130/1/6 128/1/6 131/1/6
f 129/1/6 130/1/6 133/1/6
f 133/1/6 130/1/6 134/1/6
f 131/1/6 132/1/6 135/1/6
f 135/1/6 132/1/6 136/1/6
f 134/1/6 135/1/6 137/1/6
f 137/1/6 135/1/6 138/1/6
f 139/1/6 140/1/6 141/1/6
f 141/1/6 140/1/6 142/1/6
f 139/1/6 141/1/6 143/1/6
f 141/2/6 142/2/6 143/2/6
f 142/1/6 140/1/6 144/1/6
f 143/2/6 142/2/6 144/2/6
f 139/1/6 143/1/6 145/1/6
f 143/1/6 144/1/6 145/1/6
f 144/1/6 140/1/6 146/1/6
f 145/1/6 144/1/6 146/1/6
